<svg width="512" height="512" viewBox="0 0 512 512" fill="none" xmlns="http://www.w3.org/2000/svg">
  <rect width="512" height="512" rx="64" fill="#F44336"/>
  <rect x="118" y="118" width="276" height="276" rx="18" fill="#F5F5F5"/>
  <path d="M160 220C160 206 168 192 186 192C200 192 210 200 216 210C223 199 235 192 251 192C273 192 289 209 289 234V334C289 343 282 350 273 350H257C248 350 241 343 241 334V244C241 236 236 230 228 230C220 230 214 236 214 244V334C214 343 207 350 198 350H182C173 350 166 343 166 334V244C166 236 160 230 152 230H150V220H160Z" fill="#F44336"/>
  <path d="M289 244C289 209 318 182 353 182H360V220H353C339 220 328 231 328 245V353C328 366 339 377 353 377H364V414H353C317 414 289 385 289 350V244Z" fill="#F44336"/>
</svg>
